<svg xmlns="http://www.w3.org/2000/svg" viewBox="0 0 1000 520"><rect width="1000" height="520" fill="#f8fafc"/><text x="60" y="55" font-family="Arial" font-size="26" font-weight="700" fill="#153451">Example Historical Trend</text><text x="60" y="85" font-family="Arial" font-size="15" fill="#637488">Placeholder data — replace with approved anonymized output</text><line x1="85" y1="420" x2="940" y2="420" stroke="#9fb0c0" stroke-width="2"/><line x1="85" y1="115" x2="85" y2="420" stroke="#9fb0c0" stroke-width="2"/><polyline points="85,350 140,320 195,338 250,260 305,286 360,220 415,245 470,180 525,205 580,160 635,200 690,135 745,165 800,120 855,150 910,105" fill="none" stroke="#1f5d8f" stroke-width="5"/><polyline points="85,335 140,325 195,315 250,292 305,275 360,255 415,235 470,215 525,195 580,180 635,170 690,155 745,145 800,132 855,125 910,118" fill="none" stroke="#d49b2d" stroke-width="4" stroke-dasharray="12 10"/></svg>